<svg width="114" height="24" viewBox="0 0 114 24" fill="none" xmlns="http://www.w3.org/2000/svg">
<g clip-path="url(#clip0_5037_16457)">
<path d="M30.7291 8.94766C31.1042 7.54272 30.9493 6.46766 30.2641 5.72272C29.579 4.97766 28.3813 4.60272 26.6711 4.59766H20.1177L16.167 19.4202H19.3399L20.9377 13.4202H23.033C23.4163 13.401 23.7983 13.4793 24.1431 13.6477C24.2831 13.7352 24.3998 13.8552 24.4834 13.9976C24.567 14.1399 24.615 14.3004 24.6233 14.4653L25.1958 19.4202H28.5963L28.0413 14.8177C27.9313 13.7902 27.4587 13.1853 26.6386 13.0027C27.6308 12.729 28.5364 12.2057 29.269 11.4827C29.9769 10.786 30.4816 9.90959 30.7291 8.94766ZM27.6913 9.00019C27.5544 9.60793 27.1822 10.1366 26.6561 10.4702C26.1559 10.7853 25.4259 10.9402 24.4982 10.9402H21.5529L22.5879 7.06766H25.5359C26.461 7.06766 27.0962 7.22526 27.4462 7.53766C27.7962 7.85019 27.8713 8.34512 27.6913 9.00019ZM39.8906 8.82526L39.4879 10.3253C39.3202 9.78915 38.9652 9.33127 38.4878 9.03526C37.931 8.70107 37.289 8.53601 36.6401 8.56019C35.7296 8.56042 34.8351 8.79826 34.0447 9.25019C33.1846 9.7434 32.4415 10.4172 31.8669 11.2253C31.2336 12.0988 30.7697 13.0832 30.4991 14.1277C30.2154 15.0572 30.1554 16.0406 30.3241 16.9977C30.4529 17.7537 30.8574 18.435 31.4593 18.9102C32.1136 19.3779 32.9062 19.6122 33.7097 19.5753C34.4271 19.5768 35.1364 19.4232 35.7889 19.125C36.4414 18.8268 37.0218 18.3911 37.4902 17.8477L37.0751 19.4127H40.1681L42.9885 8.82526H39.8906ZM38.4854 14.0753C38.294 14.9373 37.8683 15.7298 37.2551 16.3653C36.991 16.6237 36.6782 16.827 36.3348 16.9635C35.9914 17.0999 35.6243 17.1668 35.2549 17.1602C34.4673 17.1602 33.9371 16.9102 33.6521 16.3777C33.3671 15.8453 33.3595 15.1027 33.6197 14.1277C33.8174 13.2579 34.2498 12.4589 34.8698 11.8177C35.1347 11.5514 35.4501 11.3407 35.7974 11.1978C36.1447 11.0548 36.517 10.9826 36.8926 10.9853C37.6627 10.9853 38.1878 11.2527 38.4578 11.7853C38.7279 12.3177 38.7554 13.0702 38.4903 14.0727L38.4854 14.0753ZM54.0226 8.83272H45.1138L44.4562 11.3027H49.6419L42.8234 17.2502L42.2409 19.4327H51.4422L52.0998 16.9627H46.5365L53.4675 10.9302L54.0226 8.83272ZM63.7666 9.22019C62.9393 8.74753 61.9957 8.51712 61.0437 8.55526C59.9698 8.54593 58.9071 8.77294 57.9307 9.22019C56.9812 9.66286 56.1468 10.3191 55.4929 11.1377C54.8099 11.9962 54.3164 12.9897 54.0451 14.0527C53.7533 14.998 53.7171 16.0038 53.9401 16.9677C54.1447 17.7678 54.6533 18.4566 55.3578 18.8877C56.0746 19.3294 56.9914 19.5502 58.1082 19.5502C59.1706 19.5595 60.2218 19.3333 61.1862 18.8877C62.1329 18.4449 62.9633 17.7875 63.6115 16.9677C64.2959 16.1097 64.7902 15.1161 65.0618 14.0527C65.3542 13.1074 65.3896 12.1012 65.1643 11.1377C64.9673 10.3402 64.4655 9.65173 63.7666 9.22019ZM61.9613 14.0477C61.6838 15.0877 61.2762 15.8677 60.7261 16.3827C60.1952 16.8884 59.4863 17.1642 58.7533 17.1502C57.1365 17.1502 56.6038 16.1161 57.1555 14.0477C57.4273 13.021 57.8441 12.2469 58.4058 11.7253C58.9434 11.211 59.6622 10.9297 60.4061 10.9426C61.1762 10.9426 61.7013 11.1927 61.9713 11.7253C62.2414 12.2577 62.2338 13.0202 61.9613 14.0477ZM97.4465 8.82526L97.0439 10.3253C96.8762 9.78915 96.5212 9.33127 96.0438 9.03526C95.488 8.69801 94.8458 8.53026 94.1961 8.55259C93.2841 8.55459 92.3885 8.79508 91.5982 9.25019C90.7373 9.74334 89.9934 10.4171 89.4178 11.2253C88.7855 12.0993 88.3217 13.0836 88.0501 14.1277C87.7688 15.0576 87.7089 16.0404 87.8751 16.9977C88.0039 17.7536 88.4084 18.4351 89.0103 18.9102C89.6732 19.3818 90.4756 19.6161 91.2881 19.5753C91.9896 19.5726 92.6824 19.4209 93.3209 19.1302C93.9796 18.8346 94.5646 18.3966 95.0337 17.8477L94.6186 19.4127H97.7115L100.534 8.82526H97.4465ZM96.0338 14.0753C95.8434 14.9371 95.4185 15.7296 94.8061 16.3653C94.5414 16.6229 94.2284 16.8257 93.8852 16.9622C93.5419 17.0986 93.1751 17.1659 92.8058 17.1602C92.0157 17.1602 91.4857 16.9102 91.2006 16.3777C90.9155 15.8453 90.9106 15.1027 91.1681 14.1277C91.3669 13.2582 91.7992 12.4596 92.4183 11.8177C92.6839 11.5516 92.9997 11.341 93.3473 11.1981C93.695 11.0552 94.0676 10.9828 94.4435 10.9853C95.2137 10.9853 95.7354 11.2519 96.0089 11.7853C96.2989 12.3026 96.3063 13.0702 96.0338 14.0727V14.0753ZM74.7757 11.6753L75.5658 8.79272C75.2325 8.6419 74.8687 8.57086 74.5031 8.58526C73.7885 8.58605 73.086 8.77024 72.4629 9.12019C71.8947 9.43146 71.4014 9.86323 71.0177 10.3853L71.4251 8.83272H68.3347L65.4893 19.4202H68.6247L70.0975 13.8927C70.2701 13.1551 70.674 12.492 71.2502 12.0002C71.8427 11.5375 72.5791 11.2977 73.3305 11.3229C73.8337 11.3207 74.3299 11.4417 74.7757 11.6753ZM85.7023 9.27272C85.0626 8.78386 84.2714 8.53522 83.467 8.57019C82.6843 8.57104 81.9131 8.75781 81.2167 9.11512C80.519 9.4582 79.9175 9.9694 79.4665 10.6027L79.479 10.5302L80.0065 8.83272H76.9311L76.1459 11.7753C76.1459 11.8077 76.1285 11.8427 76.121 11.8753L72.8955 24.0002H76.0459L77.6737 17.8902C77.8293 18.4293 78.1878 18.8872 78.6738 19.1677C79.2379 19.4917 79.8815 19.6511 80.5317 19.6277C81.445 19.6302 82.3443 19.4032 83.147 18.9677C84.0014 18.4968 84.7389 17.8398 85.3049 17.0451C85.9274 16.176 86.3827 15.1985 86.6475 14.1627C86.9333 13.2193 86.9983 12.2228 86.8375 11.2502C86.7059 10.4772 86.3035 9.7762 85.7023 9.27272ZM83.4746 14.1127C83.2824 14.9612 82.8592 15.7399 82.2518 16.3627C81.7143 16.8768 80.9951 17.1572 80.2515 17.1427C79.4765 17.1427 78.9514 16.8751 78.6738 16.3477C78.3963 15.8202 78.3813 15.0602 78.6538 14.0577C78.8486 13.1889 79.2815 12.3916 79.9041 11.7551C80.1685 11.4968 80.4813 11.2932 80.8245 11.156C81.1678 11.0187 81.5347 10.9504 81.9043 10.9551C82.6545 10.9551 83.177 11.2351 83.4495 11.7877C83.7221 12.3402 83.7395 13.1227 83.4746 14.1127ZM113.686 8.48019H110.436L109.936 9.52512C109.896 9.57766 109.858 9.63019 109.813 9.69512L109.761 9.78019L105.76 15.3751L104.93 8.83272H101.65L103.317 18.8677L99.6294 24.0002H102.787L103.7 22.6977C103.728 22.6577 103.755 22.6251 103.78 22.5827L104.848 21.0602L104.883 21.0202L109.651 14.2177L113.686 8.48019Z" fill="#0C2651"/>
<path d="M8.13568 6.29L7.18555 9.75L12.5463 6.27253L9.04581 19.42H12.5987L17.7721 0L8.13568 6.29Z" fill="#3395FF"/>
<path d="M2.35997 13.8899L0.884766 19.4199H8.1733L11.1562 8.16992L2.35997 13.8899Z" fill="#0C2651"/>
</g>
<defs>
<clipPath id="clip0_5037_16457">
<rect width="112.933" height="24" fill="white" transform="translate(0.884766)"/>
</clipPath>
</defs>
</svg>
