<svg width="68" height="24" viewBox="0 0 68 24" fill="none" xmlns="http://www.w3.org/2000/svg">
<g clip-path="url(#clip0_5037_16444)">
<mask id="mask0_5037_16444" style="mask-type:luminance" maskUnits="userSpaceOnUse" x="0" y="0" width="68" height="24">
<path d="M0.724609 0H67.1862V24H0.724609V0Z" fill="white"/>
</mask>
<g mask="url(#mask0_5037_16444)">
<mask id="mask1_5037_16444" style="mask-type:luminance" maskUnits="userSpaceOnUse" x="-5" y="-8" width="78" height="40">
<path d="M-4.83789 -7.82764H72.7532V31.8278H-4.83789V-7.82764Z" fill="white"/>
</mask>
<g mask="url(#mask1_5037_16444)">
<path d="M1.26505 20.6161H1.76351L1.30013 22.5896C1.23182 22.8822 1.24474 23.1028 1.33982 23.2505C1.43397 23.3982 1.61028 23.4711 1.8669 23.4711C2.12259 23.4711 2.33213 23.3973 2.49459 23.2496C2.6589 23.1028 2.77521 22.8822 2.84444 22.5896L3.30597 20.6161H3.80997L3.33644 22.6385C3.23397 23.0779 3.05028 23.4074 2.78721 23.6253C2.52505 23.8441 2.18074 23.953 1.75336 23.953C1.32782 23.953 1.03521 23.8441 0.876436 23.6262C0.715821 23.4093 0.688128 23.0797 0.791513 22.6385L1.26505 20.6161ZM3.74351 23.8662L4.53459 20.4877L6.03828 22.4742C6.12819 22.6003 6.2096 22.7323 6.28197 22.8693L6.80997 20.6161H7.27613L6.48505 23.9927L4.94997 21.9693C4.86465 21.8568 4.79277 21.7348 4.73582 21.6056L4.2069 23.8653L3.74351 23.8662ZM7.23459 23.8662L7.99613 20.617H8.49921L7.73859 23.8662H7.23459ZM8.46228 23.8662L9.22382 20.617H10.9527L10.8484 21.0647H9.62259L9.43244 21.8751H10.6583L10.5494 22.3385H9.32351L8.96628 23.8662H8.46228ZM10.7469 23.8662L11.5084 20.617H12.0124L11.2509 23.8662H10.7469ZM11.9746 23.8662L12.7361 20.617H14.466L14.3607 21.0647H13.1349L12.9438 21.8788H14.1697L14.0617 22.3431H12.8358L12.5894 23.3936H13.8152L13.7044 23.8662H11.9746ZM14.8989 23.389H15.3217C15.5543 23.389 15.7334 23.3724 15.8571 23.3401C15.9817 23.3077 16.0952 23.2524 16.1995 23.1757C16.3423 23.0697 16.463 22.9367 16.5549 22.7844C16.65 22.6274 16.722 22.4456 16.77 22.2388C16.8189 22.0311 16.8318 21.8502 16.8106 21.6942C16.7937 21.5493 16.7339 21.4127 16.6389 21.3019C16.5641 21.2219 16.468 21.1649 16.362 21.1376C16.2475 21.1053 16.0611 21.0887 15.8017 21.0887H15.4371L14.8989 23.389ZM14.2832 23.8662L15.0438 20.6161H15.7232C16.1654 20.6161 16.4709 20.6391 16.6398 20.6862C16.8087 20.7324 16.9481 20.8108 17.058 20.9197C17.2038 21.0637 17.2961 21.2484 17.3358 21.4736C17.3764 21.6979 17.3617 21.9545 17.2943 22.2434C17.2269 22.5324 17.1207 22.7881 16.9758 23.0096C16.8318 23.233 16.6527 23.4167 16.4395 23.5625C16.2822 23.67 16.1072 23.749 15.9226 23.7961C15.738 23.8422 15.4638 23.8662 15.0974 23.8662H14.2832ZM19.7469 21.9748H19.8761C20.1567 21.9748 20.3497 21.9425 20.4577 21.8788C20.5666 21.8161 20.6395 21.7034 20.6774 21.5419C20.7171 21.3684 20.6958 21.2465 20.6127 21.1754C20.5306 21.1044 20.3561 21.0684 20.0894 21.0684H19.9601L19.7469 21.9748ZM19.6149 22.4077L19.2734 23.8662H18.8007L19.5623 20.617H20.3247C20.55 20.617 20.7134 20.629 20.814 20.6548C20.9064 20.6764 20.992 20.7205 21.0632 20.7831C21.1463 20.8656 21.2013 20.9722 21.2201 21.0877C21.2443 21.2283 21.2383 21.3724 21.2026 21.5105C21.1666 21.6647 21.1057 21.8059 21.0207 21.937C20.9431 22.0592 20.8406 22.1636 20.7198 22.2434C20.6275 22.3025 20.5241 22.345 20.4124 22.3699C20.2998 22.3948 20.1309 22.4068 19.9047 22.4068L19.6149 22.4077ZM21.8247 22.5896H22.6887L22.5447 21.8484C22.5273 21.726 22.5171 21.6027 22.5143 21.4791C22.4552 21.6059 22.3889 21.7292 22.3158 21.8484L21.8247 22.5896ZM22.9195 23.8662L22.7626 23.029H21.5349L20.9792 23.8662H20.4503L22.7423 20.4877L23.4503 23.8662H22.9195ZM24.1721 23.8662L24.5201 22.3791L23.8897 20.6161H24.4186L24.81 21.7191C24.8373 21.8047 24.8604 21.8916 24.8792 21.9794C24.938 21.8842 25.0031 21.7929 25.074 21.7062L25.9961 20.617H26.5001L25.0204 22.3791L24.6715 23.8662H24.1731H24.1721ZM28.9795 22.261C28.9795 22.2361 28.9869 22.1668 29.0007 22.0524C29.0118 21.9582 29.0192 21.8788 29.0257 21.817C28.9961 21.8908 28.9611 21.9647 28.9204 22.0385C28.8798 22.1124 28.8327 22.189 28.7792 22.2656L27.5626 23.9973L27.1657 22.2305C27.1337 22.0948 27.1151 21.9563 27.1103 21.817C27.0712 21.9716 27.0168 22.1219 26.9478 22.2656L26.2407 23.8662H25.7774L27.3032 20.4785L27.7371 22.5296C27.7435 22.5619 27.7527 22.6164 27.7638 22.6921L27.8035 22.9717C27.8552 22.8785 27.9291 22.7594 28.026 22.6164C28.0459 22.587 28.0656 22.5574 28.0851 22.5277L29.4586 20.4785L29.4143 23.8662H28.9463L28.9795 22.261ZM29.8167 23.8662L30.5783 20.617H32.3072L32.202 21.0647H30.9761L30.786 21.8788H32.0118L31.9029 22.3431H30.6771L30.4315 23.3936H31.6574L31.5466 23.8662H29.8167ZM32.1244 23.8662L32.9155 20.4877L34.4201 22.4742C34.5097 22.6004 34.5908 22.7324 34.6629 22.8693L35.1909 20.6161H35.6571L34.866 23.9927L33.3309 21.9702C33.2456 21.8577 33.1737 21.7357 33.1167 21.6065L32.5878 23.8662H32.1244ZM37.2651 21.0647L36.6087 23.8662H36.1047L36.7601 21.0647H35.9377L36.0429 20.6161H38.1891L38.0838 21.0647H37.2651ZM37.7884 23.2154L38.2361 23.0207C38.2407 23.1656 38.2841 23.2764 38.3681 23.353C38.4512 23.4287 38.5731 23.4665 38.7309 23.4665C38.8719 23.4701 39.0097 23.4237 39.1198 23.3355C39.2299 23.2473 39.3054 23.1231 39.3327 22.9847C39.378 22.7936 39.2663 22.6237 38.9995 22.4742C38.9712 22.4573 38.9426 22.441 38.9137 22.4253C38.6127 22.2508 38.4217 22.093 38.3414 21.9517C38.2611 21.8105 38.2444 21.6379 38.2924 21.433C38.3524 21.1768 38.4981 20.9487 38.7055 20.7867C38.9128 20.6247 39.1693 20.5384 39.4324 20.5422C39.6614 20.5422 39.8414 20.5884 39.9743 20.6807C40.1063 20.7739 40.1811 20.9068 40.2004 21.0804L39.7574 21.2927C39.7287 21.2053 39.6759 21.1279 39.6051 21.0693C39.5354 21.0198 39.4513 20.9948 39.366 20.9982C39.2406 20.9952 39.1177 21.0342 39.0171 21.109C38.9208 21.1825 38.8537 21.2878 38.8278 21.4062C38.7817 21.6019 38.9146 21.7837 39.2247 21.9527L39.2811 21.9841C39.5534 22.1317 39.7297 22.2767 39.8109 22.4179C39.8921 22.5591 39.9078 22.7354 39.858 22.9468C39.786 23.2551 39.6364 23.4997 39.4094 23.6807C39.1783 23.8634 38.8907 23.9597 38.5961 23.953C38.3321 23.953 38.13 23.8893 37.9915 23.7619C37.8531 23.6345 37.7847 23.4527 37.7884 23.2154ZM41.5103 23.8662L42.2709 20.617H42.7749L42.0134 23.8662H41.5103ZM42.738 23.8662L43.5291 20.4877L45.0337 22.4742C45.1233 22.6004 45.2044 22.7324 45.2764 22.8693L45.8044 20.6161H46.2706L45.4795 23.9927L43.9444 21.9702C43.859 21.8578 43.7871 21.7357 43.7303 21.6065L43.2014 23.8662H42.738ZM47.8786 21.0647L47.2223 23.8662H46.7183L47.3737 21.0647H46.5512L46.6564 20.6161H48.8026L48.6983 21.0647H47.8786ZM48.4269 23.8662L49.1884 20.617H50.9174L50.8131 21.0647H49.5872L49.3961 21.8788H50.622L50.5131 22.3431H49.2872L49.0417 23.3936H50.2675L50.1567 23.8662H48.4269ZM51.6752 22.0016H51.7666C52.0334 22.0016 52.218 21.9693 52.3204 21.9037C52.4229 21.8391 52.494 21.7237 52.5327 21.5576C52.5752 21.3785 52.5577 21.2521 52.4801 21.1791C52.4044 21.1053 52.2392 21.0684 51.9844 21.0684H51.8931L51.6752 22.0016ZM51.5469 22.4114L51.2063 23.8662H50.7346L51.4961 20.6161H52.1986C52.4044 20.6161 52.5614 20.6299 52.6684 20.6585C52.7656 20.6809 52.8549 20.729 52.9269 20.7979C53.0073 20.8816 53.0601 20.9879 53.0783 21.1025C53.1004 21.2383 53.0941 21.3772 53.0598 21.5105C52.9989 21.7708 52.8918 21.9748 52.7367 22.1225C52.5826 22.2702 52.3851 22.3579 52.1432 22.3874L52.8641 23.8662H52.2946L51.6041 22.4114H51.5469ZM53.1623 23.8662L53.9238 20.617H55.6537L55.5484 21.0647H54.3226L54.1334 21.8751H55.3592L55.2503 22.3385H54.0244L53.6672 23.8662H53.1623ZM56.238 22.5896H57.1011L56.9571 21.8484C56.9395 21.726 56.9296 21.6027 56.9275 21.4791C56.8677 21.6057 56.8012 21.729 56.7281 21.8484L56.238 22.5896ZM57.3318 23.8662L57.1758 23.029H55.9481L55.3924 23.8662H54.8635L57.1555 20.4877L57.8635 23.8662H57.3318ZM61.1432 21.4062C61.0372 21.284 60.9058 21.1864 60.7583 21.1201C60.6074 21.0549 60.4445 21.0222 60.2801 21.0241C59.9414 21.0241 59.6386 21.1385 59.3737 21.3656C59.1064 21.5957 58.9216 21.9069 58.8475 22.2517C58.7644 22.6025 58.8014 22.8924 58.9537 23.1194C59.1069 23.3484 59.3414 23.4628 59.6561 23.4628C59.8398 23.4628 60.0226 23.4287 60.2044 23.3604C60.3863 23.2921 60.5691 23.1896 60.7537 23.0511L60.6134 23.6484C60.4546 23.7508 60.2894 23.8274 60.1177 23.8773C59.9469 23.9281 59.7678 23.953 59.5823 23.953C59.3441 23.953 59.1346 23.9124 58.9527 23.8302C58.7747 23.7522 58.6207 23.6279 58.5069 23.4702C58.3895 23.3084 58.314 23.12 58.2872 22.9219C58.2561 22.697 58.2683 22.4683 58.3232 22.2481C58.4075 21.8924 58.5766 21.5623 58.8161 21.2862C59.0556 21.01 59.3584 20.796 59.6986 20.6622C59.9164 20.5791 60.1417 20.5385 60.3724 20.5385C60.5552 20.5385 60.7223 20.5662 60.8737 20.6216C61.026 20.677 61.1663 20.7601 61.2955 20.8736L61.1432 21.4062ZM61.1921 23.8662L61.9537 20.617H63.6826L63.5783 21.0647H62.3524L62.1614 21.8788H63.3872L63.2783 22.3431H62.0524L61.8069 23.3936H63.0327L62.922 23.8662H61.1921Z" fill="#696A6A"/>
<path d="M52.0017 17.7842H48.5383L53.355 0.00292969H56.8183L52.0017 17.7842ZM50.2036 0.565084C49.9636 0.226314 49.5934 0.0555451 49.0913 0.0555451H30.0454L29.102 3.53831H32.5673V3.53555H46.4273L45.4193 7.25739H31.5583L31.5602 7.24908H28.0959L25.2205 17.8589H28.6866L30.6159 10.7383H46.1965C46.683 10.7383 47.1408 10.5694 47.5719 10.2297C47.9853 9.91498 48.2834 9.47278 48.4202 8.97155L50.3494 1.84908C50.4897 1.33216 50.4417 0.903853 50.2036 0.565084ZM23.2036 16.6737C23.1143 17.0132 22.9156 17.3138 22.6383 17.5291C22.361 17.7443 22.0205 17.8622 21.6694 17.8645H3.80049C3.3131 17.8645 2.95126 17.6955 2.7131 17.3568C2.47587 17.0171 2.42418 16.5971 2.5608 16.0977L6.92049 0.054622H10.3876L6.49126 14.3835H20.3586L24.255 0.054622H27.7202L23.2036 16.6737Z" fill="#66686C"/>
<path d="M62.801 0.0361328L67.1856 8.94936L57.9678 17.8607L62.801 0.0361328Z" fill="#27803B"/>
<path d="M59.7274 0.0361328L64.1092 8.94936L54.8877 17.8607L59.7274 0.0361328Z" fill="#E9661C"/>
</g>
</g>
</g>
<defs>
<clipPath id="clip0_5037_16444">
<rect width="67.3846" height="24" fill="white" transform="translate(0.5)"/>
</clipPath>
</defs>
</svg>
